<?xml version="1.0" standalone="no"?>
<!DOCTYPE svg PUBLIC "-//W3C//DTD SVG 20010904//EN"
 "http://www.w3.org/TR/2001/REC-SVG-20010904/DTD/svg10.dtd">
<svg version="1.0" xmlns="http://www.w3.org/2000/svg"
 width="591.000000pt" height="591.000000pt" viewBox="0 0 591.000000 591.000000"
 preserveAspectRatio="xMidYMid meet">
<metadata>
Created by potrace 1.11, written by Peter Selinger 2001-2013
</metadata>
<g transform="translate(0.000000,591.000000) scale(0.100000,-0.100000)"
fill="#000000" stroke="none">
<path d="M1724 5255 c-45 -13 -101 -26 -124 -29 -22 -3 -45 -8 -49 -10 -4 -3
-21 -7 -37 -10 -117 -21 -217 -79 -286 -165 -21 -25 -51 -60 -67 -77 -41 -43
-100 -136 -136 -215 -16 -35 -34 -67 -38 -70 -5 -3 -8 -8 -7 -10 1 -2 -3 -17
-9 -32 -6 -16 -11 -34 -11 -41 0 -7 -3 -16 -7 -20 -4 -3 -8 -12 -9 -19 -1 -7
-7 -31 -13 -53 -18 -68 -25 -152 -24 -294 1 -107 5 -145 20 -185 l20 -50 -71
-1 c-94 -1 -254 -63 -351 -137 -56 -42 -191 -180 -249 -255 -27 -34 -52 -62
-57 -62 -17 0 -20 -42 -5 -65 33 -50 75 -27 171 91 175 217 350 321 537 320
l87 -1 85 -81 c128 -124 230 -167 381 -159 110 6 164 24 263 88 81 53 248 173
276 199 11 10 23 18 27 18 4 0 14 6 21 13 23 23 157 127 163 127 4 0 46 34 79
66 36 34 185 138 266 186 157 93 207 115 324 144 106 27 122 28 366 28 246 1
322 -4 375 -24 14 -5 25 -7 25 -4 0 2 8 0 18 -5 9 -5 34 -12 56 -15 21 -4 42
-9 47 -12 5 -3 17 -7 27 -9 9 -1 37 -9 62 -16 25 -7 47 -13 50 -14 20 -5 128
-37 140 -42 8 -3 20 -7 25 -8 32 -8 203 -88 238 -112 48 -33 116 -97 178 -169
181 -207 202 -235 296 -376 40 -59 86 -123 104 -142 18 -20 47 -62 66 -93 18
-32 38 -65 43 -73 70 -110 173 -355 214 -510 8 -30 19 -70 25 -87 5 -18 7 -33
4 -33 -3 0 0 -7 7 -15 7 -9 13 -44 14 -80 1 -36 3 -65 6 -65 12 0 -2 -140 -20
-194 -25 -79 -29 -104 -31 -212 -2 -77 1 -98 21 -140 13 -27 36 -58 50 -70 14
-12 37 -33 52 -46 15 -13 67 -43 114 -68 48 -25 93 -54 101 -66 8 -12 15 -54
17 -93 3 -65 1 -74 -23 -101 -14 -16 -52 -41 -84 -56 -53 -24 -68 -26 -170
-24 -300 7 -289 8 -347 -24 -68 -37 -80 -49 -291 -301 -78 -92 -165 -185 -174
-185 -2 0 -23 -13 -47 -29 -63 -42 -311 -140 -390 -154 -54 -10 -113 -21 -118
-22 -149 -36 -173 -39 -345 -39 -180 0 -263 7 -300 27 -11 6 -22 10 -25 9 -14
-5 -121 34 -198 71 -48 24 -106 51 -130 60 -39 16 -90 39 -232 105 -53 25
-212 127 -241 154 -8 7 -43 33 -79 57 -36 25 -85 61 -110 81 -73 59 -220 170
-226 170 -7 0 -60 50 -127 120 -28 30 -112 115 -186 189 -171 172 -205 221
-366 525 -34 66 -64 135 -70 166 -1 3 -6 30 -13 60 -16 77 -20 104 -28 179 -3
36 -9 70 -12 76 -3 5 -7 100 -8 210 -2 149 1 214 12 255 8 30 16 69 19 85 2
17 8 44 13 62 8 23 6 38 -5 59 -17 34 -30 44 -62 44 -24 0 -70 -41 -72 -63 0
-7 -3 -21 -5 -32 -3 -11 -7 -35 -9 -53 -2 -18 -7 -37 -11 -43 -14 -24 -19 -92
-19 -284 0 -177 4 -254 19 -345 3 -14 7 -50 11 -80 5 -45 18 -119 26 -140 3
-8 7 -21 24 -80 8 -30 23 -69 33 -86 21 -39 59 -110 103 -194 19 -36 42 -76
51 -89 10 -13 15 -28 12 -33 -3 -4 -1 -8 4 -8 4 0 31 -33 57 -72 27 -40 106
-129 175 -198 69 -69 152 -155 186 -190 68 -73 110 -112 169 -155 22 -17 46
-35 55 -42 95 -74 232 -177 360 -268 58 -41 110 -79 117 -85 7 -5 17 -10 23
-10 5 0 10 -4 10 -8 0 -7 140 -82 153 -82 3 0 47 -20 98 -43 52 -24 110 -50
129 -57 19 -8 64 -29 100 -47 35 -18 70 -33 77 -33 7 0 13 -5 13 -11 0 -5 5
-7 10 -4 6 4 16 2 23 -3 15 -11 155 -48 223 -58 57 -9 369 -10 434 -2 25 3 65
11 90 18 52 14 58 15 164 36 44 8 114 28 157 44 43 15 80 26 83 22 3 -3 6 0 6
6 0 7 3 11 8 10 21 -4 205 85 257 125 39 30 141 130 180 178 140 169 175 211
214 251 25 27 51 48 58 48 7 0 13 4 13 8 0 10 13 12 85 11 275 -6 341 -2 390
20 11 5 39 17 63 26 23 10 42 22 42 27 0 4 4 8 10 8 9 0 61 48 58 53 -1 1 7
15 18 32 15 22 19 49 21 115 3 164 -30 223 -159 290 -164 85 -195 117 -200
203 -3 65 9 142 36 222 24 71 21 286 -6 380 -52 181 -63 216 -93 300 -18 50
-41 114 -50 142 -15 45 -71 151 -136 258 -11 17 -24 41 -31 55 -11 23 -84 118
-99 130 -4 3 -38 52 -77 110 -38 58 -84 123 -101 145 -17 22 -37 47 -44 56
-48 63 -178 210 -247 279 -137 138 -293 209 -695 315 -246 65 -263 68 -490 68
-279 1 -336 -3 -425 -26 -41 -10 -82 -20 -90 -22 -57 -12 -85 -23 -165 -62
-49 -25 -92 -49 -95 -53 -3 -4 -10 -9 -15 -11 -32 -13 -160 -96 -220 -144 -38
-30 -122 -94 -185 -143 -63 -48 -119 -92 -125 -98 -5 -7 -57 -46 -115 -88 -58
-42 -110 -80 -116 -85 -5 -4 -30 -21 -55 -37 -24 -16 -46 -31 -49 -34 -3 -3
-30 -19 -60 -35 -51 -28 -62 -30 -160 -30 -117 0 -149 11 -225 79 l-40 35 28
1 c43 0 134 53 215 125 79 70 177 229 225 365 40 113 136 418 141 445 11 62
18 91 32 132 7 24 16 55 19 70 2 16 11 51 18 78 7 28 14 74 16 102 2 47 0 53
-25 69 -36 24 -37 24 -130 -1z m21 -152 c-4 -10 -8 -25 -10 -34 -2 -9 -12 -47
-23 -85 -12 -38 -23 -85 -26 -104 -22 -133 -172 -569 -232 -670 -39 -67 -112
-142 -187 -193 -46 -32 -65 -39 -112 -41 -68 -3 -76 3 -105 81 -20 53 -21 71
-17 203 6 161 9 185 32 256 27 81 113 266 127 272 5 2 8 8 8 14 0 6 25 40 55
75 30 35 58 70 62 77 5 7 33 33 64 58 49 39 69 48 155 67 54 12 107 25 117 29
10 4 36 8 59 10 35 2 40 0 33 -15z"/>
</g>
</svg>
