<?xml version="1.0" standalone="no"?>
<!DOCTYPE svg PUBLIC "-//W3C//DTD SVG 20010904//EN"
 "http://www.w3.org/TR/2001/REC-SVG-20010904/DTD/svg10.dtd">
<svg version="1.0" xmlns="http://www.w3.org/2000/svg"
 width="2760.000000pt" height="2760.000000pt" viewBox="0 0 2760.000000 2760.000000"
 preserveAspectRatio="xMidYMid meet">
<metadata>
Created by potrace 1.11, written by Peter Selinger 2001-2013
</metadata>
<g transform="translate(0.000000,2760.000000) scale(0.100000,-0.100000)"
fill="#000000" stroke="none">
<path d="M8006 24729 c-38 -5 -128 -29 -200 -52 -192 -64 -487 -137 -551 -137
-24 0 -78 -11 -345 -72 -52 -12 -169 -40 -260 -64 -91 -23 -183 -45 -205 -49
-91 -16 -257 -76 -366 -134 -215 -112 -506 -358 -682 -576 -45 -55 -135 -163
-202 -240 -248 -289 -370 -443 -419 -530 -81 -144 -111 -200 -142 -265 -41
-89 -44 -93 -111 -210 -29 -49 -53 -92 -53 -95 0 -5 -46 -108 -85 -190 -120
-252 -213 -497 -275 -725 -17 -63 -37 -135 -45 -160 -8 -25 -24 -90 -35 -145
-81 -402 -92 -556 -91 -1194 0 -455 9 -609 37 -699 8 -26 21 -72 29 -102 7
-30 24 -84 38 -120 59 -152 70 -187 64 -203 -6 -15 -29 -17 -224 -17 -372 0
-473 -15 -639 -91 -23 -10 -46 -19 -52 -19 -10 0 -150 -54 -181 -70 -9 -5 -41
-19 -71 -33 -30 -13 -86 -39 -125 -57 -38 -18 -95 -44 -125 -57 -175 -79 -215
-103 -455 -267 -148 -101 -329 -262 -586 -522 -218 -221 -329 -346 -606 -678
-24 -28 -71 -87 -105 -131 -34 -44 -99 -116 -143 -160 -67 -65 -84 -89 -95
-128 -25 -94 15 -194 100 -252 102 -68 273 -31 390 85 30 30 82 91 115 135 32
44 98 125 145 179 47 55 118 138 158 185 161 189 203 236 445 480 283 284 391
374 597 494 208 122 239 138 445 223 33 14 71 31 85 39 14 7 41 17 60 23 31 9
85 29 260 96 52 20 76 21 479 24 304 2 432 0 452 -8 15 -7 73 -63 129 -126
287 -321 694 -662 930 -777 80 -39 272 -110 356 -131 27 -7 56 -16 63 -21 32
-19 299 -46 521 -52 214 -5 248 -4 375 17 77 12 166 31 199 41 32 11 64 19 71
19 15 0 100 32 173 66 29 13 59 24 66 24 18 0 239 110 289 144 21 15 57 36 80
47 23 12 60 34 82 51 22 16 82 57 134 91 107 70 184 123 286 196 39 27 102 71
140 97 39 27 113 80 165 118 52 39 113 82 135 97 22 14 94 66 159 115 66 49
141 105 167 124 134 100 293 223 369 285 146 121 341 279 370 300 15 11 65 47
111 81 46 33 127 91 179 129 52 38 148 112 213 164 65 53 133 107 151 121 57
45 189 153 251 205 82 70 367 291 438 340 82 57 259 167 346 215 41 23 104 60
140 84 36 23 102 64 146 91 44 26 121 73 170 103 132 80 275 160 430 241 168
87 461 201 515 201 27 0 295 66 465 115 44 13 101 25 128 29 26 3 68 12 95 21
48 15 294 39 567 55 191 12 1695 12 1795 0 391 -44 446 -55 920 -181 41 -11
100 -26 130 -33 30 -8 82 -21 115 -30 82 -22 219 -56 285 -71 89 -21 196 -50
330 -90 69 -21 155 -46 193 -56 37 -10 97 -27 135 -37 37 -11 103 -29 146 -41
156 -43 543 -174 691 -233 83 -34 173 -69 200 -80 28 -11 68 -28 91 -39 22
-10 44 -19 48 -19 5 0 79 -34 165 -76 86 -42 175 -85 198 -96 47 -21 188 -112
298 -191 191 -139 393 -331 616 -587 70 -80 171 -195 225 -256 327 -365 529
-605 721 -854 23 -30 77 -100 120 -155 43 -55 98 -129 122 -165 24 -36 58 -83
76 -105 17 -22 38 -51 45 -65 7 -14 42 -70 78 -125 36 -55 83 -129 106 -165
173 -268 302 -442 471 -635 157 -179 246 -307 341 -489 48 -93 88 -162 171
-294 32 -52 64 -106 72 -120 26 -51 244 -417 257 -432 7 -9 20 -34 28 -55 8
-22 31 -78 51 -125 75 -174 123 -299 169 -430 103 -297 232 -645 257 -695 5
-11 16 -42 24 -70 8 -27 20 -70 28 -95 23 -71 91 -312 137 -490 38 -146 60
-220 106 -367 25 -79 51 -176 59 -215 8 -40 20 -91 27 -113 10 -30 13 -162 13
-540 l0 -500 -27 -85 c-15 -47 -45 -139 -67 -205 -74 -224 -98 -324 -122 -500
-14 -107 -23 -800 -11 -865 12 -67 52 -181 85 -247 87 -168 332 -427 519 -547
31 -20 59 -40 62 -45 5 -8 45 -32 191 -117 78 -45 255 -138 390 -204 344 -169
380 -239 380 -731 l0 -245 -35 -69 c-37 -72 -128 -174 -196 -218 -22 -14 -97
-51 -169 -82 -71 -31 -137 -60 -145 -64 -35 -18 -222 -71 -286 -81 -38 -5
-229 -10 -424 -9 -345 0 -441 6 -625 38 -33 6 -180 11 -326 12 l-267 0 -118
-32 c-137 -38 -317 -125 -446 -215 -87 -62 -210 -173 -311 -282 -33 -37 -82
-89 -108 -117 -51 -54 -196 -223 -244 -285 -16 -21 -55 -66 -86 -101 -31 -35
-75 -90 -98 -122 -51 -69 -220 -273 -280 -337 -24 -25 -97 -110 -164 -190
-180 -215 -340 -391 -468 -515 -119 -115 -247 -223 -289 -245 -14 -7 -43 -26
-65 -42 -96 -70 -304 -182 -470 -253 -99 -42 -185 -81 -191 -86 -6 -5 -35 -18
-65 -28 -138 -49 -432 -156 -504 -183 -334 -126 -539 -182 -930 -253 -160 -28
-294 -59 -550 -123 -283 -71 -337 -82 -510 -98 -193 -18 -835 -33 -1185 -28
-345 6 -700 50 -955 120 -187 52 -353 100 -415 121 -25 8 -67 21 -95 28 -52
14 -123 41 -210 80 -27 13 -93 42 -145 64 -52 23 -106 48 -120 56 -30 18 -222
112 -345 171 -125 59 -302 134 -318 134 -7 0 -22 6 -33 14 -23 16 -378 176
-390 176 -5 0 -42 17 -84 39 -41 21 -109 53 -150 70 -41 18 -91 41 -111 52
-20 10 -41 19 -47 19 -6 0 -53 20 -104 44 -51 24 -127 59 -168 76 -66 29 -192
93 -299 152 -20 11 -44 27 -54 36 -9 8 -40 29 -67 46 -27 17 -120 79 -207 137
-87 58 -198 132 -248 165 -49 32 -148 108 -220 168 -71 60 -152 124 -180 142
-27 19 -113 77 -190 130 -77 53 -165 113 -196 133 -98 62 -183 123 -224 160
-46 41 -119 101 -170 140 -19 14 -101 80 -183 146 -81 66 -181 143 -220 170
-62 43 -302 221 -412 305 -19 15 -96 72 -171 128 -252 187 -584 510 -996 972
-298 333 -491 525 -798 795 -153 135 -188 172 -266 284 -24 35 -59 85 -77 110
-54 76 -135 190 -159 224 -12 18 -41 60 -65 95 -24 35 -59 84 -78 110 -20 26
-51 76 -69 111 -18 35 -49 91 -70 125 -20 33 -75 135 -121 226 -45 91 -100
192 -121 226 -22 34 -39 65 -39 69 0 4 -15 33 -34 64 -54 89 -73 125 -172 318
-51 100 -106 202 -122 225 -37 55 -172 351 -172 378 0 7 -12 49 -26 94 -98
310 -148 524 -174 749 -35 302 -58 486 -64 504 -3 10 -10 70 -16 133 -6 63
-19 171 -30 240 -54 347 -60 465 -60 1152 l0 644 25 144 c24 135 37 189 86
360 10 36 25 110 34 164 14 87 32 165 82 361 20 80 13 196 -15 251 -33 64 -97
140 -149 176 -45 31 -54 33 -128 33 -90 0 -132 -17 -211 -82 -104 -87 -131
-160 -205 -543 -16 -85 -39 -191 -50 -235 -118 -453 -114 -411 -114 -1305 0
-742 1 -771 23 -950 13 -102 32 -237 42 -300 10 -63 22 -153 25 -200 4 -47 11
-110 16 -140 5 -30 15 -113 24 -185 54 -465 68 -549 126 -780 109 -431 206
-708 317 -900 22 -38 64 -115 92 -170 102 -195 219 -411 268 -495 28 -47 74
-130 103 -185 89 -173 220 -417 262 -490 46 -79 99 -157 289 -424 26 -36 74
-106 107 -154 184 -267 252 -347 417 -488 273 -234 593 -552 819 -814 43 -49
155 -171 249 -269 366 -384 598 -598 829 -767 174 -127 226 -165 343 -255 65
-49 160 -118 209 -152 95 -64 178 -130 419 -327 210 -172 246 -198 491 -362
249 -167 371 -255 465 -338 36 -31 76 -64 90 -73 14 -9 45 -32 70 -52 25 -20
83 -60 130 -90 75 -48 154 -99 335 -220 220 -147 264 -175 336 -211 36 -19 76
-39 90 -45 13 -7 65 -32 114 -57 50 -24 101 -47 115 -51 14 -4 48 -18 75 -31
254 -118 361 -165 376 -165 8 0 31 -11 51 -25 20 -14 40 -25 44 -25 4 0 30
-11 58 -24 145 -68 230 -106 239 -106 5 0 46 -18 91 -39 82 -40 168 -77 306
-132 41 -16 82 -34 90 -39 8 -5 49 -26 90 -46 41 -20 167 -82 280 -137 113
-55 234 -111 270 -125 36 -13 94 -35 130 -48 77 -30 237 -83 335 -112 153 -45
217 -63 258 -72 23 -4 67 -15 97 -23 209 -55 423 -92 680 -118 202 -20 251
-21 805 -16 741 7 957 22 1215 84 146 34 182 43 340 82 274 68 331 80 430 96
241 38 494 99 730 175 69 23 337 119 615 221 28 10 88 34 135 54 47 20 102 43
123 50 20 8 52 21 70 29 17 8 82 36 142 62 61 26 126 58 145 71 19 13 40 23
48 23 19 0 109 47 183 96 37 24 70 44 73 44 7 0 133 83 231 152 117 83 202
159 391 350 210 212 287 295 377 408 64 81 208 248 298 345 30 33 86 100 125
149 179 229 248 314 359 441 66 75 136 156 155 179 119 140 277 285 370 338
104 59 171 81 275 88 141 9 407 -5 557 -30 119 -20 155 -21 545 -17 374 3 428
6 518 25 123 25 281 71 400 116 81 30 136 54 330 147 84 40 185 118 290 223
156 156 253 321 299 505 24 98 26 118 25 340 0 130 -4 270 -9 311 -40 351
-137 577 -320 742 -102 93 -363 258 -407 258 -8 0 -42 15 -76 33 -34 19 -119
64 -189 101 -299 158 -527 343 -618 501 l-35 60 -3 250 c-4 270 8 467 33 585
17 78 59 226 77 270 25 62 71 212 96 314 l27 111 -1 505 c0 478 -1 512 -23
630 -23 133 -72 336 -95 398 -17 46 -58 182 -85 284 -116 433 -202 730 -232
796 -10 23 -19 48 -19 55 0 6 -11 35 -25 62 -13 28 -25 56 -25 64 0 7 -11 39
-24 70 -13 31 -45 117 -71 191 -26 74 -55 158 -65 185 -10 28 -39 111 -65 185
-90 258 -262 634 -334 730 -14 19 -41 64 -59 100 -19 36 -54 95 -78 131 -24
37 -44 71 -44 76 0 5 -28 51 -62 103 -34 52 -78 127 -99 166 -20 39 -55 99
-78 134 -22 35 -41 68 -41 73 0 9 -77 138 -114 192 -84 122 -134 187 -236 305
-181 211 -312 379 -368 474 -15 26 -107 169 -187 292 -16 25 -52 80 -78 121
-27 42 -81 119 -120 172 -40 53 -83 112 -97 133 -30 43 -145 192 -285 366
-184 230 -226 280 -359 431 -61 68 -142 161 -181 206 -166 195 -550 617 -636
700 -124 120 -228 210 -314 273 -38 28 -95 69 -125 92 -112 83 -254 171 -298
184 -12 4 -50 24 -85 45 -63 39 -286 141 -306 141 -6 0 -32 11 -58 25 -187 96
-575 242 -903 339 -250 74 -293 87 -327 95 -21 5 -126 35 -233 66 -223 66
-302 88 -415 115 -44 10 -134 33 -200 50 -66 18 -145 38 -175 45 -30 7 -104
26 -165 43 -718 191 -904 212 -1863 212 -498 0 -1430 -22 -1463 -35 -8 -3 -79
-16 -159 -30 -193 -34 -251 -46 -410 -90 -74 -20 -155 -41 -180 -47 -336 -69
-553 -143 -770 -263 -14 -7 -74 -38 -135 -68 -60 -30 -132 -68 -160 -85 -27
-17 -77 -45 -110 -61 -33 -17 -97 -54 -142 -83 -107 -69 -156 -99 -278 -171
-55 -33 -109 -67 -120 -76 -11 -10 -49 -32 -85 -50 -36 -18 -83 -46 -105 -61
-22 -16 -62 -41 -90 -56 -103 -55 -379 -264 -653 -493 -74 -62 -208 -171 -406
-329 -50 -40 -109 -84 -131 -99 -22 -14 -92 -64 -155 -111 -63 -47 -140 -103
-170 -126 -30 -22 -115 -90 -189 -151 -224 -185 -301 -247 -382 -305 -45 -33
-288 -216 -354 -267 -31 -23 -142 -104 -250 -180 -109 -77 -237 -167 -304
-215 -363 -259 -663 -440 -821 -496 -243 -86 -321 -97 -645 -89 -269 6 -260 5
-475 77 -122 41 -197 76 -244 114 -23 18 -73 55 -113 83 -109 74 -273 220
-273 243 0 21 12 26 94 35 132 15 363 111 465 193 24 20 74 56 110 80 36 24
77 54 91 66 14 12 52 40 85 62 242 158 579 519 746 799 24 39 66 108 95 155
65 105 184 339 184 361 0 9 6 22 14 28 8 6 19 26 26 44 7 18 21 50 31 72 108
237 149 340 221 565 16 52 38 118 48 145 41 114 126 394 164 541 7 28 19 61
26 74 7 13 19 45 26 70 7 25 27 81 44 125 17 44 36 98 41 120 5 22 14 49 19
60 10 19 34 88 67 185 8 25 21 61 28 80 19 50 69 228 96 340 12 52 30 124 40
160 10 36 25 106 33 155 30 182 55 307 64 318 10 13 55 154 71 222 19 80 70
272 99 370 17 55 33 120 37 145 3 25 15 81 25 125 18 75 37 186 62 350 5 39 8
106 4 149 -10 134 -59 215 -178 290 -33 21 -146 28 -242 15z m-193 -692 c4
-13 -39 -209 -66 -297 -42 -139 -57 -195 -57 -209 0 -21 -65 -244 -84 -291
-23 -55 -53 -179 -60 -245 -7 -64 -25 -158 -58 -295 -11 -47 -24 -105 -29
-130 -23 -117 -109 -394 -184 -590 -20 -52 -43 -115 -51 -140 -8 -25 -21 -58
-28 -75 -26 -55 -79 -214 -126 -375 -23 -80 -65 -223 -106 -360 -14 -47 -32
-101 -39 -120 -18 -47 -42 -122 -64 -195 -10 -33 -26 -73 -35 -90 -9 -16 -16
-37 -16 -46 0 -9 -12 -43 -26 -75 -14 -33 -35 -81 -46 -109 -11 -27 -31 -73
-44 -101 -13 -28 -24 -57 -24 -65 0 -8 -7 -24 -15 -37 -9 -12 -21 -37 -28 -55
-26 -70 -201 -380 -262 -464 -211 -289 -393 -463 -714 -687 -31 -21 -76 -55
-100 -75 -160 -128 -277 -160 -583 -161 -153 0 -157 1 -187 25 -31 27 -117
166 -139 225 -7 19 -19 49 -26 65 -13 27 -36 99 -84 255 -15 49 -17 118 -17
615 0 590 1 612 52 880 8 44 19 105 25 135 21 124 139 489 218 675 37 88 80
192 95 230 30 78 66 151 149 302 31 56 56 108 56 115 0 7 13 31 28 53 15 22
55 94 90 160 67 128 157 247 382 507 69 80 150 175 180 213 189 234 342 370
573 507 44 26 137 56 242 79 22 5 65 16 95 24 56 15 230 57 420 100 58 14 186
40 285 59 196 38 303 61 350 74 33 10 51 6 58 -11z"/>
</g>
</svg>
